 <svg  version="1.0" xmlns="http://www.w3.org/2000/svg"  width="1125.000000pt" height="1374.000000pt" viewBox="0 0 1125.000000 1374.000000"  preserveAspectRatio="xMidYMid meet">  <g transform="translate(0.000000,1374.000000) scale(0.100000,-0.100000)" fill="#00f900" stroke="none"> <path d="M3310 13626 c-69 -7 -204 -19 -300 -25 -247 -16 -313 -28 -400 -66 -41 -19 -113 -41 -160 -49 -125 -24 -184 -43 -206 -67 -27 -30 -49 -40 -146 -65 -67 -17 -97 -30 -130 -58 -23 -20 -60 -41 -82 -47 -23 -6 -60 -28 -83 -50 -23 -21 -77 -56 -120 -77 -43 -22 -87 -50 -98 -62 -11 -12 -42 -33 -68 -46 -32 -17 -122 -99 -276 -252 -183 -183 -233 -238 -253 -282 -14 -30 -44 -74 -67 -98 -24 -23 -53 -66 -66 -95 -13 -29 -40 -68 -60 -87 -47 -44 -58 -66 -85 -166 -16 -60 -31 -93 -60 -128 -46 -56 -54 -79 -75 -221 -21 -143 -41 -226 -73 -300 -25 -58 -26 -67 -26 -270 -1 -221 0 -229 60 -475 12 -52 32 -147 43 -212 20 -122 36 -162 81 -215 15 -17 36 -55 45 -85 23 -71 59 -131 89 -151 15 -10 33 -40 47 -77 19 -53 63 -108 96 -121 5 -2 32 -35 60 -74 28 -38 65 -80 82 -93 17 -12 43 -41 57 -63 14 -22 39 -48 57 -57 17 -10 54 -38 82 -63 27 -25 70 -57 95 -71 25 -14 55 -38 68 -53 13 -15 57 -42 99 -61 42 -19 94 -50 116 -69 22 -19 66 -44 96 -56 31 -11 72 -35 91 -54 26 -25 55 -39 118 -55 64 -17 94 -32 127 -60 29 -25 61 -42 97 -50 75 -18 111 -34 163 -73 30 -23 69 -41 115 -52 39 -10 85 -28 103 -41 54 -39 100 -62 158 -77 30 -8 76 -30 102 -50 26 -19 55 -38 64 -41 132 -37 163 -49 174 -62 18 -22 115 -83 169 -106 25 -11 59 -30 76 -43 33 -25 72 -42 165 -69 31 -9 74 -30 94 -46 21 -17 70 -40 109 -51 39 -12 100 -41 136 -64 36 -24 91 -51 122 -60 32 -9 75 -31 97 -49 38 -32 48 -37 146 -72 27 -10 68 -33 91 -50 56 -43 91 -60 138 -67 24 -4 52 -18 70 -35 17 -17 51 -39 76 -50 25 -10 67 -37 94 -58 79 -63 246 -216 246 -225 0 -5 23 -25 50 -45 30 -22 59 -53 72 -78 11 -22 43 -64 72 -91 38 -38 58 -69 79 -123 17 -44 42 -84 62 -103 26 -25 38 -49 55 -113 12 -45 44 -125 71 -178 60 -120 65 -141 86 -381 21 -234 22 -326 5 -527 -21 -261 -29 -300 -77 -382 -24 -40 -55 -109 -70 -153 -21 -63 -36 -89 -69 -121 -26 -24 -50 -61 -61 -90 -23 -62 -56 -107 -97 -132 -18 -12 -44 -39 -57 -61 -14 -21 -44 -52 -68 -67 -24 -15 -53 -42 -64 -61 -12 -19 -42 -44 -70 -58 -27 -14 -56 -36 -65 -50 -9 -14 -43 -39 -76 -57 -32 -17 -69 -44 -82 -58 -27 -32 -43 -42 -117 -68 -30 -10 -79 -35 -107 -55 -34 -23 -77 -41 -123 -52 -39 -8 -97 -29 -128 -44 -31 -16 -82 -36 -112 -45 -49 -14 -288 -42 -414 -48 l-50 -3 -3 -55 c-2 -45 2 -62 21 -90 l24 -34 229 3 c387 4 554 20 670 65 22 8 122 29 223 46 151 25 201 37 278 70 52 23 131 47 175 55 64 11 93 22 141 54 33 23 78 46 99 51 21 6 55 14 77 20 21 5 59 26 85 46 26 19 79 49 119 65 40 17 86 43 102 59 17 16 50 36 74 45 24 8 65 35 91 59 25 24 62 51 82 60 20 10 50 35 67 56 17 22 47 47 67 56 19 9 50 35 67 56 17 22 48 49 70 61 21 12 50 42 67 69 17 27 41 54 55 60 14 6 44 41 67 77 23 36 63 86 88 111 31 29 55 65 69 101 14 34 39 73 66 99 29 29 50 61 61 94 23 71 38 98 83 150 33 38 42 60 61 142 26 113 41 153 81 210 37 55 45 98 63 339 25 333 28 418 17 542 -5 65 -13 172 -16 238 -11 214 -19 254 -74 362 -27 54 -56 129 -65 167 -21 84 -38 121 -81 166 -21 22 -43 65 -61 115 -22 65 -37 89 -75 125 -26 25 -57 64 -68 87 -11 23 -39 57 -62 75 -22 18 -56 57 -74 88 -19 30 -78 96 -131 145 -53 50 -120 113 -148 141 -28 29 -69 61 -91 72 -22 11 -53 34 -70 52 -16 17 -61 48 -100 68 -40 21 -96 63 -131 97 -92 91 -149 135 -201 152 -27 9 -59 26 -73 38 -39 35 -72 53 -135 75 -32 11 -81 37 -109 58 -54 41 -85 54 -180 72 -33 7 -89 27 -124 46 -35 19 -72 34 -82 34 -31 0 -103 29 -163 66 -33 20 -92 45 -132 55 -44 10 -96 33 -133 57 -42 27 -84 44 -139 56 -53 11 -96 28 -129 50 -55 37 -112 59 -196 76 -40 8 -74 24 -110 50 -28 22 -63 41 -77 44 -14 3 -52 10 -83 16 -37 7 -79 26 -117 51 -38 25 -83 45 -127 55 -94 22 -119 32 -161 66 -20 15 -61 35 -92 44 -95 26 -138 44 -176 74 -20 16 -66 39 -102 51 -35 11 -79 34 -96 49 -38 33 -75 52 -145 75 -29 9 -69 32 -90 52 -20 20 -59 46 -87 58 -27 13 -65 39 -83 59 -18 20 -53 46 -78 57 -25 12 -57 37 -71 56 -15 19 -43 43 -63 53 -20 10 -49 35 -64 54 -15 20 -52 54 -82 76 -30 23 -54 47 -54 56 0 8 -31 46 -69 84 -50 50 -73 82 -85 118 -9 27 -32 63 -52 83 -51 49 -70 85 -88 170 -10 47 -31 101 -57 144 -56 96 -63 139 -64 380 0 285 6 325 60 417 26 42 49 96 55 128 23 111 32 133 75 179 26 28 52 70 66 106 16 45 36 74 79 115 32 30 65 69 74 87 8 17 30 40 48 51 18 12 51 39 73 62 22 23 57 50 77 61 21 11 45 31 54 45 10 14 40 37 68 51 28 14 67 40 86 58 20 19 62 41 99 54 36 11 95 39 132 62 60 36 82 43 186 59 72 10 136 26 162 39 84 43 158 52 482 58 352 6 459 -2 593 -48 49 -17 139 -40 199 -50 88 -16 126 -29 194 -64 47 -25 110 -52 141 -61 33 -10 66 -28 81 -44 14 -16 57 -42 95 -59 38 -17 88 -46 110 -64 23 -18 64 -49 91 -67 72 -49 230 -199 266 -253 17 -26 48 -60 70 -77 21 -17 48 -48 59 -69 12 -20 40 -48 62 -62 22 -13 51 -44 66 -69 14 -25 49 -67 77 -95 36 -36 57 -67 73 -110 16 -45 33 -70 65 -97 37 -31 47 -48 70 -120 21 -66 35 -92 66 -122 45 -44 51 -57 82 -175 15 -56 33 -97 56 -128 38 -50 57 -95 67 -163 14 -89 39 -155 78 -212 34 -48 44 -76 64 -168 28 -129 52 -184 98 -229 25 -24 44 -33 71 -34 61 -2 66 14 60 183 -3 80 -10 357 -15 615 -11 501 -12 525 -40 1170 -10 231 -16 459 -14 506 4 79 2 87 -19 107 -13 12 -37 25 -54 28 -25 5 -37 1 -57 -19 -14 -14 -28 -38 -31 -54 -17 -76 -36 -110 -75 -132 -21 -12 -52 -37 -67 -55 -50 -60 -73 -68 -196 -74 -169 -7 -275 9 -372 57 -63 32 -103 44 -185 56 -80 12 -118 23 -165 49 -75 41 -110 53 -205 66 -54 8 -100 23 -165 55 -72 36 -113 49 -207 65 -77 13 -145 32 -197 55 -91 40 -136 48 -451 75 -309 27 -509 32 -660 16z"/> <path d="M139 6981 l-23 -18 2 -364 c2 -318 -7 -934 -24 -1609 -3 -113 -9 -268 -15 -345 -5 -77 -10 -155 -9 -174 0 -41 -15 -61 -46 -61 -22 0 -24 -4 -24 -45 0 -43 1 -45 29 -45 16 0 48 -7 71 -15 58 -20 113 -19 133 3 9 10 23 33 31 52 26 64 102 129 188 161 29 11 75 35 103 52 l50 32 160 0 160 0 80 -36 c96 -44 129 -55 216 -69 64 -11 83 -20 158 -75 45 -33 84 -32 111 2 20 25 21 36 16 118 -8 142 -24 309 -30 325 -4 9 -23 24 -43 35 -20 11 -53 43 -74 71 -20 28 -51 57 -68 64 -19 7 -43 32 -61 61 -16 27 -48 61 -69 77 -22 15 -50 45 -62 67 -12 22 -48 68 -80 102 -34 36 -62 78 -68 99 -6 21 -33 60 -64 93 -39 40 -61 75 -80 127 -19 48 -40 82 -67 108 -28 27 -44 53 -56 94 -24 85 -40 117 -77 159 -45 51 -53 67 -73 154 -18 82 -38 123 -87 185 -26 31 -36 58 -46 115 -18 101 -37 153 -77 213 -34 52 -64 152 -64 217 0 75 -67 114 -121 70z"/> </g> </svg> 